<svg width="24" height="25" viewBox="0 0 24 25" fill="none" xmlns="http://www.w3.org/2000/svg">
<path d="M6.00024 19.5C6.00024 20.6 6.90024 21.5 8.00024 21.5H16.0002C17.1002 21.5 18.0002 20.6 18.0002 19.5V9.5C18.0002 8.4 17.1002 7.5 16.0002 7.5H8.00024C6.90024 7.5 6.00024 8.4 6.00024 9.5V19.5ZM18.0002 4.5H15.5002L14.7902 3.79C14.6102 3.61 14.3502 3.5 14.0902 3.5H9.91024C9.65024 3.5 9.39024 3.61 9.21024 3.79L8.50024 4.5H6.00024C5.45024 4.5 5.00024 4.95 5.00024 5.5C5.00024 6.05 5.45024 6.5 6.00024 6.5H18.0002C18.5502 6.5 19.0002 6.05 19.0002 5.5C19.0002 4.95 18.5502 4.5 18.0002 4.5Z" fill="#C7C7C7"/>
</svg>
