<svg width="32" height="32" viewBox="0 0 32 32" fill="none" xmlns="http://www.w3.org/2000/svg">
<path d="M10.6665 24C9.19984 24 8.01317 25.2 8.01317 26.6667C8.01317 28.1334 9.19984 29.3334 10.6665 29.3334C12.1332 29.3334 13.3332 28.1334 13.3332 26.6667C13.3332 25.2 12.1332 24 10.6665 24ZM2.6665 2.66669V5.33335H5.33317L10.1332 15.4534L8.33317 18.72C8.11984 19.0934 7.99984 19.5334 7.99984 20C7.99984 21.4667 9.19984 22.6667 10.6665 22.6667H26.6665V20H11.2265C11.0398 20 10.8932 19.8534 10.8932 19.6667L10.9332 19.5067L12.1332 17.3334H22.0665C23.0665 17.3334 23.9465 16.7867 24.3998 15.96L29.1732 7.30669C29.2798 7.12002 29.3332 6.89335 29.3332 6.66669C29.3332 5.93335 28.7332 5.33335 27.9998 5.33335H8.27984L7.0265 2.66669H2.6665ZM23.9998 24C22.5332 24 21.3465 25.2 21.3465 26.6667C21.3465 28.1334 22.5332 29.3334 23.9998 29.3334C25.4665 29.3334 26.6665 28.1334 26.6665 26.6667C26.6665 25.2 25.4665 24 23.9998 24Z" fill="#275742"/>
</svg>
